<svg width="137" height="64" viewBox="0 0 137 64" fill="none" xmlns="http://www.w3.org/2000/svg">
<path d="M9.74816 33.8396C8.2027 33.8396 6.81798 33.5864 5.59398 33.0802C4.36982 32.574 3.38643 31.8248 2.64391 30.8326C1.92144 29.8405 1.54015 28.6458 1.5 27.2487H6.9787C7.0588 28.0383 7.32972 28.6458 7.79148 29.071C8.25323 29.476 8.85529 29.6785 9.59765 29.6785C10.3604 29.6785 10.9625 29.5064 11.4038 29.1621C11.8451 28.7977 12.0661 28.3016 12.0661 27.6739C12.0661 27.1474 11.8855 26.7121 11.5242 26.3678C11.1829 26.0236 10.7518 25.7401 10.2298 25.5174C9.72827 25.2946 9.0058 25.0416 8.0624 24.7581C6.69757 24.3329 5.58377 23.9076 4.721 23.4824C3.85807 23.0572 3.1155 22.4295 2.49339 21.5993C1.87129 20.7691 1.56021 19.6858 1.56021 18.3494C1.56021 16.365 2.27262 14.816 3.6975 13.7023C5.12255 12.5684 6.97871 12.0015 9.26652 12.0015C11.5946 12.0015 13.4707 12.5684 14.8957 13.7023C16.3208 14.816 17.083 16.3752 17.1835 18.3798H11.6145C11.5742 17.6913 11.3237 17.1547 10.862 16.77C10.4002 16.365 9.80836 16.1625 9.0859 16.1625C8.46395 16.1625 7.96188 16.3346 7.58076 16.6789C7.19964 17.0028 7.00881 17.4787 7.00881 18.1064C7.00881 18.7948 7.32972 19.3315 7.9721 19.7162C8.61447 20.1009 9.61753 20.516 10.9824 20.9615C12.3472 21.4272 13.4508 21.8727 14.2937 22.2979C15.1564 22.7231 15.8993 23.3407 16.5213 24.1506C17.1432 24.9605 17.4545 26.0034 17.4545 27.279C17.4545 28.4939 17.1432 29.5975 16.5213 30.5897C15.9192 31.5818 15.036 32.3715 13.8722 32.9587C12.7084 33.546 11.3334 33.8396 9.74816 33.8396Z" fill="#252739"/>
<path d="M28.7516 16.4663V20.7792H35.6451V24.7884H28.7516V29.4659H36.5482V33.6269H23.604V12.3052H36.5482V16.4663H28.7516Z" fill="#56C6E7"/>
<path d="M5.83265 57.0706C4.99551 57.0706 4.23864 56.9258 3.56204 56.6367C2.89692 56.3476 2.3694 55.9311 1.9795 55.3871C1.5896 54.8431 1.38891 54.201 1.37744 53.4605H3.95768C3.99208 53.9581 4.1641 54.3517 4.47373 54.6408C4.79482 54.9298 5.2306 55.0746 5.78105 55.0746C6.34295 55.0746 6.78449 54.9418 7.10557 54.6755C7.42665 54.3978 7.58721 54.0391 7.58721 53.5994C7.58721 53.2407 7.47825 52.9457 7.26038 52.7142C7.04251 52.4828 6.76729 52.3035 6.43471 52.1762C6.11363 52.0374 5.66637 51.887 5.09298 51.725C4.31318 51.4935 3.67672 51.2679 3.18361 51.0481C2.70196 50.8166 2.28339 50.4753 1.92789 50.0241C1.58386 49.5613 1.41184 48.948 1.41184 48.1843C1.41184 47.4669 1.5896 46.8421 1.94509 46.3099C2.30059 45.7777 2.79944 45.3727 3.44163 45.095C4.08383 44.8057 4.81776 44.6611 5.64343 44.6611C6.88195 44.6611 7.88539 44.9677 8.65371 45.581C9.43353 46.1826 9.86357 47.0273 9.94383 48.1149H7.29479C7.27183 47.6984 7.09412 47.3571 6.76154 47.0909C6.44046 46.8132 6.01042 46.6744 5.47142 46.6744C5.00124 46.6744 4.6228 46.7959 4.33611 47.0389C4.06089 47.2818 3.92328 47.6348 3.92328 48.0976C3.92328 48.4215 4.02648 48.6935 4.2329 48.9133C4.45079 49.1216 4.71455 49.2951 5.02418 49.434C5.34527 49.5613 5.79251 49.7117 6.3659 49.8852C7.14572 50.1167 7.78218 50.348 8.27528 50.5795C8.76837 50.8109 9.19271 51.158 9.54819 51.6208C9.90367 52.0836 10.0814 52.6911 10.0814 53.4432C10.0814 54.0912 9.91518 54.6928 9.5826 55.2482C9.25001 55.8036 8.76267 56.2489 8.12046 56.5846C7.47825 56.9084 6.71568 57.0706 5.83265 57.0706ZM13.3906 46.1884C12.9663 46.1884 12.6108 46.0554 12.3241 45.7892C12.0489 45.5115 11.9113 45.1702 11.9113 44.7652C11.9113 44.3602 12.0489 44.0247 12.3241 43.7586C12.6108 43.4809 12.9663 43.342 13.3906 43.342C13.8149 43.342 14.1647 43.4809 14.4399 43.7586C14.7266 44.0247 14.8699 44.3602 14.8699 44.7652C14.8699 45.1702 14.7266 45.5115 14.4399 45.7892C14.1647 46.0554 13.8149 46.1884 13.3906 46.1884ZM14.5775 47.3339V56.9491H12.1693V47.3339H14.5775ZM22.2377 47.1951C23.3731 47.1951 24.2904 47.5595 24.99 48.2885C25.6895 49.0059 26.0393 50.0125 26.0393 51.3084V56.9491H23.6311V51.6382C23.6311 50.8745 23.4419 50.2902 23.0634 49.8852C22.685 49.4687 22.1689 49.2604 21.5153 49.2604C20.8501 49.2604 20.3226 49.4687 19.9327 49.8852C19.5543 50.2902 19.3651 50.8745 19.3651 51.6382V56.9491H16.9569V47.3339H19.3651V48.5315C19.6862 48.1149 20.0932 47.791 20.5864 47.5595C21.0909 47.3166 21.6414 47.1951 22.2377 47.1951ZM27.7101 52.1068C27.7101 51.1349 27.8993 50.2729 28.2778 49.5208C28.6676 48.7686 29.1894 48.1901 29.8431 47.7852C30.5082 47.3802 31.2479 47.1777 32.0621 47.1777C32.7731 47.1777 33.3924 47.3223 33.9199 47.6116C34.4589 47.9008 34.8889 48.2653 35.21 48.705V47.3339H37.6354V56.9491H35.21V55.5433C34.9004 55.9945 34.4703 56.3704 33.9199 56.6714C33.3809 56.9605 32.7559 57.1053 32.0449 57.1053C31.2422 57.1053 30.5082 56.897 29.8431 56.4805C29.1894 56.0639 28.6676 55.4798 28.2778 54.7275C27.8993 53.9639 27.7101 53.0903 27.7101 52.1068ZM35.21 52.1415C35.21 51.5514 35.0953 51.0481 34.866 50.6315C34.6366 50.2034 34.327 49.8794 33.9371 49.6596C33.5472 49.4282 33.1286 49.3125 32.6814 49.3125C32.2341 49.3125 31.8213 49.4224 31.4429 49.6422C31.0644 49.8621 30.7548 50.1861 30.514 50.6142C30.2846 51.0307 30.1699 51.5282 30.1699 52.1068C30.1699 52.6853 30.2846 53.1944 30.514 53.6341C30.7548 54.0622 31.0644 54.3918 31.4429 54.6234C31.8327 54.855 32.2456 54.9705 32.6814 54.9705C33.1286 54.9705 33.5472 54.8604 33.9371 54.6408C34.327 54.4092 34.6366 54.0854 34.866 53.6688C35.0953 53.2407 35.21 52.7316 35.21 52.1415ZM42.3957 48.8265C42.7053 48.3174 43.1067 47.9182 43.5998 47.629C44.1044 47.3397 44.6777 47.1951 45.32 47.1951V49.7464H44.6835C43.9266 49.7464 43.3532 49.9257 42.9633 50.2844C42.5849 50.6431 42.3957 51.2679 42.3957 52.1589V56.9491H39.9875V47.3339H42.3957V48.8265ZM53.1133 46.1363V50.1803H57.4825V51.482H53.1133V55.6474H57.9986V56.9491H51.548V44.8347H57.9986V46.1363H53.1133ZM59.7822 52.1589C59.7822 51.1869 59.9773 50.3365 60.367 49.6075C60.7573 48.867 61.2906 48.2943 61.9668 47.8893C62.6549 47.4843 63.4235 47.2818 64.2718 47.2818C65.0061 47.2818 65.6882 47.4554 66.3188 47.8025C66.9499 48.1381 67.4315 48.5835 67.7637 49.1389V44.1057H69.3463V56.9491H67.7637V55.1614C67.4541 55.7282 66.9956 56.1968 66.3876 56.5673C65.7802 56.9258 65.069 57.1053 64.2546 57.1053C63.4176 57.1053 62.6549 56.897 61.9668 56.4805C61.2906 56.0639 60.7573 55.4798 60.367 54.7275C59.9773 53.9754 59.7822 53.1192 59.7822 52.1589ZM67.7637 52.1762C67.7637 51.4588 67.6207 50.834 67.3337 50.3018C67.0472 49.7695 66.6574 49.3645 66.164 49.0869C65.6823 48.7976 65.1491 48.653 64.5642 48.653C63.9794 48.653 63.4461 48.7918 62.9645 49.0695C62.4828 49.3472 62.099 49.7522 61.812 50.2844C61.5255 50.8166 61.3819 51.4415 61.3819 52.1589C61.3819 52.8878 61.5255 53.5242 61.812 54.068C62.099 54.6001 62.4828 55.0112 62.9645 55.3003C63.4461 55.578 63.9794 55.7168 64.5642 55.7168C65.1491 55.7168 65.6823 55.578 66.164 55.3003C66.6574 55.0112 67.0472 54.6001 67.3337 54.068C67.6207 53.5242 67.7637 52.8936 67.7637 52.1762ZM80.3515 47.438V56.9491H78.7862V55.5433C78.4884 56.0292 78.0696 56.4111 77.5305 56.6887C77.0031 56.9551 76.4183 57.0879 75.7759 57.0879C75.0421 57.0879 74.3826 56.9377 73.7977 56.6367C73.2129 56.3243 72.7484 55.8616 72.4044 55.2482C72.0722 54.6348 71.9055 53.8886 71.9055 53.0093V47.438H73.4537V52.801C73.4537 53.7382 73.6891 54.4612 74.1589 54.9705C74.6293 55.4679 75.2717 55.7168 76.0855 55.7168C76.923 55.7168 77.5821 55.4565 78.0637 54.9358C78.5453 54.4151 78.7862 53.6573 78.7862 52.6622V47.438H80.3515ZM82.4098 52.1762C82.4098 51.1927 82.6049 50.3365 82.9946 49.6075C83.3844 48.867 83.9235 48.2943 84.6116 47.8893C85.3109 47.4843 86.1081 47.2818 87.0026 47.2818C88.161 47.2818 89.1125 47.5653 89.8581 48.1323C90.6149 48.6992 91.1138 49.486 91.3546 50.4927H89.6689C89.5081 49.9141 89.1931 49.4571 88.7228 49.1216C88.2642 48.786 87.6907 48.6182 87.0026 48.6182C86.1081 48.6182 85.3857 48.9306 84.8352 49.5555C84.2848 50.1687 84.0095 51.0423 84.0095 52.1762C84.0095 53.3217 84.2848 54.2069 84.8352 54.8317C85.3857 55.4565 86.1081 55.7689 87.0026 55.7689C87.6907 55.7689 88.2642 55.6067 88.7228 55.2829C89.1813 54.9591 89.4968 54.4959 89.6689 53.8944H91.3546C91.1025 54.8664 90.5977 55.6474 89.8409 56.2375C89.084 56.8162 88.1379 57.1053 87.0026 57.1053C86.1081 57.1053 85.3109 56.903 84.6116 56.4978C83.9235 56.0927 83.3844 55.5199 82.9946 54.7796C82.6049 54.0391 82.4098 53.1713 82.4098 52.1762ZM92.8587 52.1589C92.8587 51.1869 93.0533 50.3365 93.4435 49.6075C93.8333 48.867 94.3665 48.2943 95.0433 47.8893C95.7313 47.4843 96.4936 47.2818 97.3311 47.2818C98.1568 47.2818 98.8733 47.4612 99.4813 47.8199C100.089 48.1785 100.542 48.6298 100.84 49.1736V47.438H102.423V56.9491H100.84V55.1788C100.531 55.7342 100.066 56.1968 99.4469 56.5673C98.8389 56.9258 98.1277 57.1053 97.3139 57.1053C96.4764 57.1053 95.7195 56.897 95.0433 56.4805C94.3665 56.0639 93.8333 55.4798 93.4435 54.7275C93.0533 53.9754 92.8587 53.1192 92.8587 52.1589ZM100.84 52.1762C100.84 51.4588 100.697 50.834 100.41 50.3018C100.123 49.7695 99.7334 49.3645 99.2405 49.0869C98.7588 48.7976 98.2256 48.653 97.6407 48.653C97.0559 48.653 96.5226 48.7918 96.041 49.0695C95.5593 49.3472 95.175 49.7522 94.8885 50.2844C94.6014 50.8166 94.4584 51.4415 94.4584 52.1589C94.4584 52.8878 94.6014 53.5242 94.8885 54.068C95.175 54.6001 95.5593 55.0112 96.041 55.3003C96.5226 55.578 97.0559 55.7168 97.6407 55.7168C98.2256 55.7168 98.7588 55.578 99.2405 55.3003C99.7334 55.0112 100.123 54.6001 100.41 54.068C100.697 53.5242 100.84 52.8936 100.84 52.1762ZM106.977 48.7397V54.3457C106.977 54.8083 107.075 55.1381 107.27 55.335C107.464 55.5199 107.803 55.6127 108.284 55.6127H109.437V56.9491H108.027C107.155 56.9491 106.501 56.7468 106.066 56.3416C105.63 55.9365 105.412 55.2715 105.412 54.3457V48.7397H104.191V47.438H105.412V45.0429H106.977V47.438H109.437V48.7397H106.977ZM112.142 45.8934C111.844 45.8934 111.592 45.7892 111.385 45.581C111.179 45.3727 111.076 45.1182 111.076 44.8173C111.076 44.5164 111.179 44.2619 111.385 44.0536C111.592 43.8454 111.844 43.7412 112.142 43.7412C112.429 43.7412 112.67 43.8454 112.865 44.0536C113.071 44.2619 113.174 44.5164 113.174 44.8173C113.174 45.1182 113.071 45.3727 112.865 45.581C112.67 45.7892 112.429 45.8934 112.142 45.8934ZM112.899 47.438V56.9491H111.334V47.438H112.899ZM119.678 57.1053C118.795 57.1053 117.992 56.903 117.27 56.4978C116.559 56.0927 115.997 55.5199 115.584 54.7796C115.183 54.0275 114.982 53.1597 114.982 52.1762C114.982 51.2043 115.188 50.348 115.601 49.6075C116.025 48.8554 116.599 48.2827 117.321 47.8893C118.044 47.4843 118.852 47.2818 119.747 47.2818C120.641 47.2818 121.45 47.4843 122.172 47.8893C122.895 48.2827 123.462 48.8497 123.875 49.5902C124.299 50.3307 124.512 51.1927 124.512 52.1762C124.512 53.1597 124.293 54.0275 123.858 54.7796C123.433 55.5199 122.854 56.0927 122.121 56.4978C121.386 56.903 120.573 57.1053 119.678 57.1053ZM119.678 55.7168C120.24 55.7168 120.767 55.5839 121.261 55.3176C121.754 55.0513 122.149 54.6521 122.448 54.1201C122.757 53.5878 122.912 52.9399 122.912 52.1762C122.912 51.4125 122.763 50.7646 122.465 50.2323C122.166 49.7001 121.777 49.3067 121.295 49.0521C120.813 48.786 120.291 48.653 119.73 48.653C119.156 48.653 118.629 48.786 118.147 49.0521C117.677 49.3067 117.298 49.7001 117.012 50.2323C116.725 50.7646 116.582 51.4125 116.582 52.1762C116.582 52.9514 116.719 53.6052 116.995 54.1374C117.281 54.6695 117.66 55.0687 118.13 55.335C118.6 55.5894 119.116 55.7168 119.678 55.7168ZM131.163 47.2645C132.309 47.2645 133.238 47.6174 133.949 48.3232C134.66 49.0174 135.016 50.0241 135.016 51.3431V56.9491H133.468V51.5688C133.468 50.62 133.232 49.8968 132.763 49.3993C132.292 48.8901 131.65 48.6356 130.836 48.6356C130.01 48.6356 129.351 48.8959 128.858 49.4166C128.376 49.9373 128.135 50.6952 128.135 51.6902V56.9491H126.57V47.438H128.135V48.7918C128.445 48.3058 128.863 47.9298 129.391 47.6637C129.93 47.3975 130.52 47.2645 131.163 47.2645Z" fill="url(#paint0_linear_4311_1257)"/>
<defs>
<linearGradient id="paint0_linear_4311_1257" x1="3.50012" y1="52.4999" x2="141.5" y2="52.4999" gradientUnits="userSpaceOnUse">
<stop stop-color="#252739"/>
<stop offset="1" stop-color="#56C6E7"/>
</linearGradient>
</defs>
</svg>
